<?xml version="1.0" standalone="no"?>
<!DOCTYPE svg PUBLIC "-//W3C//DTD SVG 20010904//EN"
 "http://www.w3.org/TR/2001/REC-SVG-20010904/DTD/svg10.dtd">
<svg version="1.0" xmlns="http://www.w3.org/2000/svg"
 width="44" height="44" viewBox="0 0 256.000000 256.000000"
 preserveAspectRatio="xMidYMid meet">

<g transform="translate(0.000000,256.000000) scale(0.100000,-0.100000)"
fill="#f0c65e" stroke="none">
<path d="M1348 2348 c-45 -12 -148 -99 -280 -235 -116 -121 -134 -163 -125
-297 6 -92 29 -155 78 -211 108 -123 325 -111 422 23 45 61 54 96 61 219 5
108 18 151 62 208 24 31 98 85 117 85 4 0 7 -22 7 -48 0 -41 -5 -53 -31 -78
-43 -40 -59 -82 -59 -156 0 -149 -33 -241 -115 -323 -65 -65 -127 -95 -231
-110 -91 -13 -127 -32 -519 -274 -210 -130 -253 -169 -307 -277 -37 -75 -41
-92 -46 -177 -3 -68 0 -108 12 -149 9 -31 16 -59 16 -62 0 -3 -69 -6 -152 -6
-135 0 -157 -2 -186 -20 -94 -57 -94 -183 0 -240 32 -19 52 -20 656 -20 l624
0 29 29 c36 36 37 70 4 126 -28 50 -100 99 -167 115 l-46 12 21 46 c28 64 34
173 13 244 -9 31 -32 79 -52 108 l-36 53 30 30 c36 36 44 32 91 -42 51 -80 72
-154 72 -259 l0 -92 94 0 93 0 4 -152 c3 -163 10 -186 55 -207 15 -7 103 -11
224 -11 l201 0 29 29 c37 38 38 81 3 133 -32 45 -104 95 -151 104 -18 3 -35 9
-37 13 -3 4 0 43 6 88 9 71 13 83 35 94 42 23 120 116 152 182 86 175 52 384
-85 526 l-54 55 0 92 0 92 178 4 c166 3 180 5 232 30 83 39 133 89 200 200 70
115 78 143 56 185 -20 40 -53 51 -161 56 -116 5 -152 23 -270 137 -144 139
-129 135 -455 137 -161 1 -290 -3 -312 -9z m670 -218 c28 -26 29 -73 2 -100
-42 -42 -113 -11 -113 50 0 61 67 91 111 50z"/>
</g>
</svg>
